{"title":"Rick and Morty - 107 Raising Gazorpazorp XVID MP3 .AVI","uid":9757425,"size":596128364,"categoryP":"video","categoryS":"hd___tv_shows","magnet":"?xt=urn:btih:b34209b9a3b0c97c41485260827165d0e3b771fe&amp;dn=Rick+and+Morty+-+107+Raising+Gazorpazorp+XVID+MP3+.AVI&amp;tr=udp%3A%2F%2Ftracker.openbittorrent.com%3A80&amp;tr=udp%3A%2F%2Fopen.demonii.com%3A1337&amp;tr=udp%3A%2F%2Ftracker.coppersurfer.tk%3A6969&amp;tr=udp%3A%2F%2Fexodus.desync.com%3A6969","seeders":1,"leechers":0,"uploader":"Danimal1q2w3","files":1,"time":1394760734,"description":"source:\n &lt;a href=&quot;\nhttps://thepiratebay.se/torrent/9753643/Rick_and_Morty_S01E07_Raising_Gazorpazorp_%281920x1080%29_%5BPhr0stY%5D.&quot; rel=&quot;nofollow&quot; target=&quot;_NEW&quot;&gt;\nhttps://thepiratebay.se/torrent/9753643/Rick_and_Morty_S01E07_Raising_Gazorpazorp_%281920x1080%29_%5BPhr0stY%5D.&lt;/a&gt;\n\n\nVideo\nID                                       : 0\nFormat                                   : MPEG-4 Visual\nFormat profile                           : Simple@L3\nFormat settings, BVOP                    : No\nFormat settings, QPel                    : No\nFormat settings, GMC                     : No warppoints\nFormat settings, Matrix                  : Default (H.263)\nCodec ID                                 : XVID\nCodec ID/Hint                            : XviD\nDuration                                 : 22mn 2s\nBit rate                                 : 3 281 Kbps\nWidth                                    : 1 280 pixels\nHeight                                   : 720 pixels\nDisplay aspect ratio                     : 16:9\nFrame rate                               : 23.976 fps\nColor space                              : YUV\nChroma subsampling                       : 4:2:0\nBit depth                                : 8 bits\nScan type                                : Progressive\nCompression mode                         : Lossy\nBits/(Pixel*Frame)                       : 0.149\nStream size                              : 517 MiB (91%)\nWriting library                          : XviD 63\n\nAudio\nID                                       : 1\nFormat                                   : MPEG Audio\nFormat version                           : Version 1\nFormat profile                           : Layer 3\nMode                                     : Joint stereo\nMode extension                           : MS Stereo\nCodec ID                                 : 55\nCodec ID/Hint                            : MP3\nDuration                                 : 22mn 2s\nBit rate mode                            : Variable\nBit rate                                 : 311 Kbps\nChannel(s)                               : 2 channels\nSampling rate                            : 48.0 KHz\nCompression mode                         : Lossy\nStream size                              : 49.1 MiB (9%)\nAlignment                                : Aligned on interleaves\nInterleave, duration                     : 24 ms (0.58 video frame)\nInterleave, preload duration             : 51 ms\nWriting library                          : LAME3.98.4\n","torrent":{"xt":"urn:btih:b34209b9a3b0c97c41485260827165d0e3b771fe","amp;dn":"Rick+and+Morty+-+107+Raising+Gazorpazorp+XVID+MP3+.AVI","amp;tr":["udp%3A%2F%2Ftracker.openbittorrent.com%3A80","udp%3A%2F%2Fopen.demonii.com%3A1337","udp%3A%2F%2Ftracker.coppersurfer.tk%3A6969","udp%3A%2F%2Fexodus.desync.com%3A6969"],"infoHash":"b34209b9a3b0c97c41485260827165d0e3b771fe","infoHashBuffer":{"type":"Buffer","data":[179,66,9,185,163,176,201,124,65,72,82,96,130,113,101,208,227,183,113,254]},"announce":[],"urlList":[]}}